<svg xmlns="http://www.w3.org/2000/svg" width="36.00mm" height="36.00mm" viewBox="0 0 36.00 36.00">
<rect width="100%" height="100%" fill="#ffffff"/>
<g fill="#111111">
<rect x="6.40" y="6.40" width="0.80" height="0.80"/>
<rect x="7.20" y="6.40" width="0.80" height="0.80"/>
<rect x="8.00" y="6.40" width="0.80" height="0.80"/>
<rect x="8.80" y="6.40" width="0.80" height="0.80"/>
<rect x="9.60" y="6.40" width="0.80" height="0.80"/>
<rect x="10.40" y="6.40" width="0.80" height="0.80"/>
<rect x="11.20" y="6.40" width="0.80" height="0.80"/>
<rect x="15.20" y="6.40" width="0.80" height="0.80"/>
<rect x="16.80" y="6.40" width="0.80" height="0.80"/>
<rect x="19.20" y="6.40" width="0.80" height="0.80"/>
<rect x="21.60" y="6.40" width="0.80" height="0.80"/>
<rect x="24.00" y="6.40" width="0.80" height="0.80"/>
<rect x="24.80" y="6.40" width="0.80" height="0.80"/>
<rect x="25.60" y="6.40" width="0.80" height="0.80"/>
<rect x="26.40" y="6.40" width="0.80" height="0.80"/>
<rect x="27.20" y="6.40" width="0.80" height="0.80"/>
<rect x="28.00" y="6.40" width="0.80" height="0.80"/>
<rect x="28.80" y="6.40" width="0.80" height="0.80"/>
<rect x="6.40" y="7.20" width="0.80" height="0.80"/>
<rect x="11.20" y="7.20" width="0.80" height="0.80"/>
<rect x="13.60" y="7.20" width="0.80" height="0.80"/>
<rect x="14.40" y="7.20" width="0.80" height="0.80"/>
<rect x="16.80" y="7.20" width="0.80" height="0.80"/>
<rect x="17.60" y="7.20" width="0.80" height="0.80"/>
<rect x="18.40" y="7.20" width="0.80" height="0.80"/>
<rect x="20.80" y="7.20" width="0.80" height="0.80"/>
<rect x="22.40" y="7.20" width="0.80" height="0.80"/>
<rect x="24.00" y="7.20" width="0.80" height="0.80"/>
<rect x="28.80" y="7.20" width="0.80" height="0.80"/>
<rect x="6.40" y="8.00" width="0.80" height="0.80"/>
<rect x="8.00" y="8.00" width="0.80" height="0.80"/>
<rect x="8.80" y="8.00" width="0.80" height="0.80"/>
<rect x="9.60" y="8.00" width="0.80" height="0.80"/>
<rect x="11.20" y="8.00" width="0.80" height="0.80"/>
<rect x="14.40" y="8.00" width="0.80" height="0.80"/>
<rect x="16.00" y="8.00" width="0.80" height="0.80"/>
<rect x="16.80" y="8.00" width="0.80" height="0.80"/>
<rect x="19.20" y="8.00" width="0.80" height="0.80"/>
<rect x="20.00" y="8.00" width="0.80" height="0.80"/>
<rect x="20.80" y="8.00" width="0.80" height="0.80"/>
<rect x="22.40" y="8.00" width="0.80" height="0.80"/>
<rect x="24.00" y="8.00" width="0.80" height="0.80"/>
<rect x="25.60" y="8.00" width="0.80" height="0.80"/>
<rect x="26.40" y="8.00" width="0.80" height="0.80"/>
<rect x="27.20" y="8.00" width="0.80" height="0.80"/>
<rect x="28.80" y="8.00" width="0.80" height="0.80"/>
<rect x="6.40" y="8.80" width="0.80" height="0.80"/>
<rect x="8.00" y="8.80" width="0.80" height="0.80"/>
<rect x="8.80" y="8.80" width="0.80" height="0.80"/>
<rect x="9.60" y="8.80" width="0.80" height="0.80"/>
<rect x="11.20" y="8.80" width="0.80" height="0.80"/>
<rect x="14.40" y="8.80" width="0.80" height="0.80"/>
<rect x="16.00" y="8.80" width="0.80" height="0.80"/>
<rect x="16.80" y="8.80" width="0.80" height="0.80"/>
<rect x="17.60" y="8.80" width="0.80" height="0.80"/>
<rect x="18.40" y="8.80" width="0.80" height="0.80"/>
<rect x="21.60" y="8.80" width="0.80" height="0.80"/>
<rect x="24.00" y="8.80" width="0.80" height="0.80"/>
<rect x="25.60" y="8.80" width="0.80" height="0.80"/>
<rect x="26.40" y="8.80" width="0.80" height="0.80"/>
<rect x="27.20" y="8.80" width="0.80" height="0.80"/>
<rect x="28.80" y="8.80" width="0.80" height="0.80"/>
<rect x="6.40" y="9.60" width="0.80" height="0.80"/>
<rect x="8.00" y="9.60" width="0.80" height="0.80"/>
<rect x="8.80" y="9.60" width="0.80" height="0.80"/>
<rect x="9.60" y="9.60" width="0.80" height="0.80"/>
<rect x="11.20" y="9.60" width="0.80" height="0.80"/>
<rect x="14.40" y="9.60" width="0.80" height="0.80"/>
<rect x="16.80" y="9.60" width="0.80" height="0.80"/>
<rect x="17.60" y="9.60" width="0.80" height="0.80"/>
<rect x="19.20" y="9.60" width="0.80" height="0.80"/>
<rect x="20.00" y="9.60" width="0.80" height="0.80"/>
<rect x="20.80" y="9.60" width="0.80" height="0.80"/>
<rect x="24.00" y="9.60" width="0.80" height="0.80"/>
<rect x="25.60" y="9.60" width="0.80" height="0.80"/>
<rect x="26.40" y="9.60" width="0.80" height="0.80"/>
<rect x="27.20" y="9.60" width="0.80" height="0.80"/>
<rect x="28.80" y="9.60" width="0.80" height="0.80"/>
<rect x="6.40" y="10.40" width="0.80" height="0.80"/>
<rect x="11.20" y="10.40" width="0.80" height="0.80"/>
<rect x="12.80" y="10.40" width="0.80" height="0.80"/>
<rect x="13.60" y="10.40" width="0.80" height="0.80"/>
<rect x="16.00" y="10.40" width="0.80" height="0.80"/>
<rect x="16.80" y="10.40" width="0.80" height="0.80"/>
<rect x="17.60" y="10.40" width="0.80" height="0.80"/>
<rect x="20.00" y="10.40" width="0.80" height="0.80"/>
<rect x="20.80" y="10.40" width="0.80" height="0.80"/>
<rect x="21.60" y="10.40" width="0.80" height="0.80"/>
<rect x="22.40" y="10.40" width="0.80" height="0.80"/>
<rect x="24.00" y="10.40" width="0.80" height="0.80"/>
<rect x="28.80" y="10.40" width="0.80" height="0.80"/>
<rect x="6.40" y="11.20" width="0.80" height="0.80"/>
<rect x="7.20" y="11.20" width="0.80" height="0.80"/>
<rect x="8.00" y="11.20" width="0.80" height="0.80"/>
<rect x="8.80" y="11.20" width="0.80" height="0.80"/>
<rect x="9.60" y="11.20" width="0.80" height="0.80"/>
<rect x="10.40" y="11.20" width="0.80" height="0.80"/>
<rect x="11.20" y="11.20" width="0.80" height="0.80"/>
<rect x="12.80" y="11.20" width="0.80" height="0.80"/>
<rect x="14.40" y="11.20" width="0.80" height="0.80"/>
<rect x="16.00" y="11.20" width="0.80" height="0.80"/>
<rect x="17.60" y="11.20" width="0.80" height="0.80"/>
<rect x="19.20" y="11.20" width="0.80" height="0.80"/>
<rect x="20.80" y="11.20" width="0.80" height="0.80"/>
<rect x="22.40" y="11.20" width="0.80" height="0.80"/>
<rect x="24.00" y="11.20" width="0.80" height="0.80"/>
<rect x="24.80" y="11.20" width="0.80" height="0.80"/>
<rect x="25.60" y="11.20" width="0.80" height="0.80"/>
<rect x="26.40" y="11.20" width="0.80" height="0.80"/>
<rect x="27.20" y="11.20" width="0.80" height="0.80"/>
<rect x="28.00" y="11.20" width="0.80" height="0.80"/>
<rect x="28.80" y="11.20" width="0.80" height="0.80"/>
<rect x="14.40" y="12.00" width="0.80" height="0.80"/>
<rect x="16.00" y="12.00" width="0.80" height="0.80"/>
<rect x="17.60" y="12.00" width="0.80" height="0.80"/>
<rect x="20.00" y="12.00" width="0.80" height="0.80"/>
<rect x="20.80" y="12.00" width="0.80" height="0.80"/>
<rect x="22.40" y="12.00" width="0.80" height="0.80"/>
<rect x="6.40" y="12.80" width="0.80" height="0.80"/>
<rect x="8.80" y="12.80" width="0.80" height="0.80"/>
<rect x="10.40" y="12.80" width="0.80" height="0.80"/>
<rect x="11.20" y="12.80" width="0.80" height="0.80"/>
<rect x="12.80" y="12.80" width="0.80" height="0.80"/>
<rect x="18.40" y="12.80" width="0.80" height="0.80"/>
<rect x="19.20" y="12.80" width="0.80" height="0.80"/>
<rect x="23.20" y="12.80" width="0.80" height="0.80"/>
<rect x="24.80" y="12.80" width="0.80" height="0.80"/>
<rect x="6.40" y="13.60" width="0.80" height="0.80"/>
<rect x="8.00" y="13.60" width="0.80" height="0.80"/>
<rect x="8.80" y="13.60" width="0.80" height="0.80"/>
<rect x="9.60" y="13.60" width="0.80" height="0.80"/>
<rect x="10.40" y="13.60" width="0.80" height="0.80"/>
<rect x="12.80" y="13.60" width="0.80" height="0.80"/>
<rect x="14.40" y="13.60" width="0.80" height="0.80"/>
<rect x="17.60" y="13.60" width="0.80" height="0.80"/>
<rect x="18.40" y="13.60" width="0.80" height="0.80"/>
<rect x="20.00" y="13.60" width="0.80" height="0.80"/>
<rect x="22.40" y="13.60" width="0.80" height="0.80"/>
<rect x="23.20" y="13.60" width="0.80" height="0.80"/>
<rect x="24.00" y="13.60" width="0.80" height="0.80"/>
<rect x="26.40" y="13.60" width="0.80" height="0.80"/>
<rect x="28.80" y="13.60" width="0.80" height="0.80"/>
<rect x="7.20" y="14.40" width="0.80" height="0.80"/>
<rect x="8.80" y="14.40" width="0.80" height="0.80"/>
<rect x="9.60" y="14.40" width="0.80" height="0.80"/>
<rect x="10.40" y="14.40" width="0.80" height="0.80"/>
<rect x="11.20" y="14.40" width="0.80" height="0.80"/>
<rect x="12.00" y="14.40" width="0.80" height="0.80"/>
<rect x="12.80" y="14.40" width="0.80" height="0.80"/>
<rect x="15.20" y="14.40" width="0.80" height="0.80"/>
<rect x="20.80" y="14.40" width="0.80" height="0.80"/>
<rect x="21.60" y="14.40" width="0.80" height="0.80"/>
<rect x="22.40" y="14.40" width="0.80" height="0.80"/>
<rect x="23.20" y="14.40" width="0.80" height="0.80"/>
<rect x="24.80" y="14.40" width="0.80" height="0.80"/>
<rect x="25.60" y="14.40" width="0.80" height="0.80"/>
<rect x="26.40" y="14.40" width="0.80" height="0.80"/>
<rect x="27.20" y="14.40" width="0.80" height="0.80"/>
<rect x="28.00" y="14.40" width="0.80" height="0.80"/>
<rect x="6.40" y="15.20" width="0.80" height="0.80"/>
<rect x="13.60" y="15.20" width="0.80" height="0.80"/>
<rect x="17.60" y="15.20" width="0.80" height="0.80"/>
<rect x="18.40" y="15.20" width="0.80" height="0.80"/>
<rect x="19.20" y="15.20" width="0.80" height="0.80"/>
<rect x="20.80" y="15.20" width="0.80" height="0.80"/>
<rect x="23.20" y="15.20" width="0.80" height="0.80"/>
<rect x="25.60" y="15.20" width="0.80" height="0.80"/>
<rect x="27.20" y="15.20" width="0.80" height="0.80"/>
<rect x="28.00" y="15.20" width="0.80" height="0.80"/>
<rect x="8.00" y="16.00" width="0.80" height="0.80"/>
<rect x="8.80" y="16.00" width="0.80" height="0.80"/>
<rect x="9.60" y="16.00" width="0.80" height="0.80"/>
<rect x="11.20" y="16.00" width="0.80" height="0.80"/>
<rect x="12.00" y="16.00" width="0.80" height="0.80"/>
<rect x="12.80" y="16.00" width="0.80" height="0.80"/>
<rect x="13.60" y="16.00" width="0.80" height="0.80"/>
<rect x="15.20" y="16.00" width="0.80" height="0.80"/>
<rect x="16.00" y="16.00" width="0.80" height="0.80"/>
<rect x="20.00" y="16.00" width="0.80" height="0.80"/>
<rect x="21.60" y="16.00" width="0.80" height="0.80"/>
<rect x="22.40" y="16.00" width="0.80" height="0.80"/>
<rect x="23.20" y="16.00" width="0.80" height="0.80"/>
<rect x="24.00" y="16.00" width="0.80" height="0.80"/>
<rect x="26.40" y="16.00" width="0.80" height="0.80"/>
<rect x="28.00" y="16.00" width="0.80" height="0.80"/>
<rect x="28.80" y="16.00" width="0.80" height="0.80"/>
<rect x="6.40" y="16.80" width="0.80" height="0.80"/>
<rect x="7.20" y="16.80" width="0.80" height="0.80"/>
<rect x="10.40" y="16.80" width="0.80" height="0.80"/>
<rect x="14.40" y="16.80" width="0.80" height="0.80"/>
<rect x="16.00" y="16.80" width="0.80" height="0.80"/>
<rect x="20.00" y="16.80" width="0.80" height="0.80"/>
<rect x="21.60" y="16.80" width="0.80" height="0.80"/>
<rect x="23.20" y="16.80" width="0.80" height="0.80"/>
<rect x="9.60" y="17.60" width="0.80" height="0.80"/>
<rect x="11.20" y="17.60" width="0.80" height="0.80"/>
<rect x="12.80" y="17.60" width="0.80" height="0.80"/>
<rect x="13.60" y="17.60" width="0.80" height="0.80"/>
<rect x="14.40" y="17.60" width="0.80" height="0.80"/>
<rect x="15.20" y="17.60" width="0.80" height="0.80"/>
<rect x="20.00" y="17.60" width="0.80" height="0.80"/>
<rect x="23.20" y="17.60" width="0.80" height="0.80"/>
<rect x="24.80" y="17.60" width="0.80" height="0.80"/>
<rect x="26.40" y="17.60" width="0.80" height="0.80"/>
<rect x="27.20" y="17.60" width="0.80" height="0.80"/>
<rect x="28.00" y="17.60" width="0.80" height="0.80"/>
<rect x="28.80" y="17.60" width="0.80" height="0.80"/>
<rect x="7.20" y="18.40" width="0.80" height="0.80"/>
<rect x="8.80" y="18.40" width="0.80" height="0.80"/>
<rect x="9.60" y="18.40" width="0.80" height="0.80"/>
<rect x="13.60" y="18.40" width="0.80" height="0.80"/>
<rect x="14.40" y="18.40" width="0.80" height="0.80"/>
<rect x="15.20" y="18.40" width="0.80" height="0.80"/>
<rect x="16.80" y="18.40" width="0.80" height="0.80"/>
<rect x="17.60" y="18.40" width="0.80" height="0.80"/>
<rect x="20.00" y="18.40" width="0.80" height="0.80"/>
<rect x="26.40" y="18.40" width="0.80" height="0.80"/>
<rect x="28.00" y="18.40" width="0.80" height="0.80"/>
<rect x="6.40" y="19.20" width="0.80" height="0.80"/>
<rect x="7.20" y="19.20" width="0.80" height="0.80"/>
<rect x="8.80" y="19.20" width="0.80" height="0.80"/>
<rect x="9.60" y="19.20" width="0.80" height="0.80"/>
<rect x="11.20" y="19.20" width="0.80" height="0.80"/>
<rect x="12.00" y="19.20" width="0.80" height="0.80"/>
<rect x="16.00" y="19.20" width="0.80" height="0.80"/>
<rect x="16.80" y="19.20" width="0.80" height="0.80"/>
<rect x="17.60" y="19.20" width="0.80" height="0.80"/>
<rect x="20.00" y="19.20" width="0.80" height="0.80"/>
<rect x="21.60" y="19.20" width="0.80" height="0.80"/>
<rect x="23.20" y="19.20" width="0.80" height="0.80"/>
<rect x="24.80" y="19.20" width="0.80" height="0.80"/>
<rect x="28.00" y="19.20" width="0.80" height="0.80"/>
<rect x="7.20" y="20.00" width="0.80" height="0.80"/>
<rect x="8.80" y="20.00" width="0.80" height="0.80"/>
<rect x="9.60" y="20.00" width="0.80" height="0.80"/>
<rect x="10.40" y="20.00" width="0.80" height="0.80"/>
<rect x="12.80" y="20.00" width="0.80" height="0.80"/>
<rect x="14.40" y="20.00" width="0.80" height="0.80"/>
<rect x="19.20" y="20.00" width="0.80" height="0.80"/>
<rect x="23.20" y="20.00" width="0.80" height="0.80"/>
<rect x="24.00" y="20.00" width="0.80" height="0.80"/>
<rect x="24.80" y="20.00" width="0.80" height="0.80"/>
<rect x="26.40" y="20.00" width="0.80" height="0.80"/>
<rect x="28.80" y="20.00" width="0.80" height="0.80"/>
<rect x="6.40" y="20.80" width="0.80" height="0.80"/>
<rect x="8.00" y="20.80" width="0.80" height="0.80"/>
<rect x="10.40" y="20.80" width="0.80" height="0.80"/>
<rect x="11.20" y="20.80" width="0.80" height="0.80"/>
<rect x="12.00" y="20.80" width="0.80" height="0.80"/>
<rect x="12.80" y="20.80" width="0.80" height="0.80"/>
<rect x="15.20" y="20.80" width="0.80" height="0.80"/>
<rect x="16.80" y="20.80" width="0.80" height="0.80"/>
<rect x="23.20" y="20.80" width="0.80" height="0.80"/>
<rect x="24.80" y="20.80" width="0.80" height="0.80"/>
<rect x="25.60" y="20.80" width="0.80" height="0.80"/>
<rect x="28.00" y="20.80" width="0.80" height="0.80"/>
<rect x="28.80" y="20.80" width="0.80" height="0.80"/>
<rect x="8.00" y="21.60" width="0.80" height="0.80"/>
<rect x="9.60" y="21.60" width="0.80" height="0.80"/>
<rect x="10.40" y="21.60" width="0.80" height="0.80"/>
<rect x="14.40" y="21.60" width="0.80" height="0.80"/>
<rect x="16.00" y="21.60" width="0.80" height="0.80"/>
<rect x="16.80" y="21.60" width="0.80" height="0.80"/>
<rect x="18.40" y="21.60" width="0.80" height="0.80"/>
<rect x="19.20" y="21.60" width="0.80" height="0.80"/>
<rect x="20.00" y="21.60" width="0.80" height="0.80"/>
<rect x="24.80" y="21.60" width="0.80" height="0.80"/>
<rect x="28.00" y="21.60" width="0.80" height="0.80"/>
<rect x="28.80" y="21.60" width="0.80" height="0.80"/>
<rect x="6.40" y="22.40" width="0.80" height="0.80"/>
<rect x="8.00" y="22.40" width="0.80" height="0.80"/>
<rect x="8.80" y="22.40" width="0.80" height="0.80"/>
<rect x="9.60" y="22.40" width="0.80" height="0.80"/>
<rect x="10.40" y="22.40" width="0.80" height="0.80"/>
<rect x="11.20" y="22.40" width="0.80" height="0.80"/>
<rect x="14.40" y="22.40" width="0.80" height="0.80"/>
<rect x="15.20" y="22.40" width="0.80" height="0.80"/>
<rect x="16.00" y="22.40" width="0.80" height="0.80"/>
<rect x="17.60" y="22.40" width="0.80" height="0.80"/>
<rect x="19.20" y="22.40" width="0.80" height="0.80"/>
<rect x="22.40" y="22.40" width="0.80" height="0.80"/>
<rect x="23.20" y="22.40" width="0.80" height="0.80"/>
<rect x="24.00" y="22.40" width="0.80" height="0.80"/>
<rect x="24.80" y="22.40" width="0.80" height="0.80"/>
<rect x="25.60" y="22.40" width="0.80" height="0.80"/>
<rect x="27.20" y="22.40" width="0.80" height="0.80"/>
<rect x="12.80" y="23.20" width="0.80" height="0.80"/>
<rect x="14.40" y="23.20" width="0.80" height="0.80"/>
<rect x="15.20" y="23.20" width="0.80" height="0.80"/>
<rect x="16.80" y="23.20" width="0.80" height="0.80"/>
<rect x="19.20" y="23.20" width="0.80" height="0.80"/>
<rect x="20.00" y="23.20" width="0.80" height="0.80"/>
<rect x="21.60" y="23.20" width="0.80" height="0.80"/>
<rect x="22.40" y="23.20" width="0.80" height="0.80"/>
<rect x="25.60" y="23.20" width="0.80" height="0.80"/>
<rect x="27.20" y="23.20" width="0.80" height="0.80"/>
<rect x="28.00" y="23.20" width="0.80" height="0.80"/>
<rect x="28.80" y="23.20" width="0.80" height="0.80"/>
<rect x="6.40" y="24.00" width="0.80" height="0.80"/>
<rect x="7.20" y="24.00" width="0.80" height="0.80"/>
<rect x="8.00" y="24.00" width="0.80" height="0.80"/>
<rect x="8.80" y="24.00" width="0.80" height="0.80"/>
<rect x="9.60" y="24.00" width="0.80" height="0.80"/>
<rect x="10.40" y="24.00" width="0.80" height="0.80"/>
<rect x="11.20" y="24.00" width="0.80" height="0.80"/>
<rect x="13.60" y="24.00" width="0.80" height="0.80"/>
<rect x="15.20" y="24.00" width="0.80" height="0.80"/>
<rect x="16.80" y="24.00" width="0.80" height="0.80"/>
<rect x="17.60" y="24.00" width="0.80" height="0.80"/>
<rect x="20.00" y="24.00" width="0.80" height="0.80"/>
<rect x="20.80" y="24.00" width="0.80" height="0.80"/>
<rect x="22.40" y="24.00" width="0.80" height="0.80"/>
<rect x="24.00" y="24.00" width="0.80" height="0.80"/>
<rect x="25.60" y="24.00" width="0.80" height="0.80"/>
<rect x="28.00" y="24.00" width="0.80" height="0.80"/>
<rect x="6.40" y="24.80" width="0.80" height="0.80"/>
<rect x="11.20" y="24.80" width="0.80" height="0.80"/>
<rect x="12.80" y="24.80" width="0.80" height="0.80"/>
<rect x="13.60" y="24.80" width="0.80" height="0.80"/>
<rect x="16.80" y="24.80" width="0.80" height="0.80"/>
<rect x="18.40" y="24.80" width="0.80" height="0.80"/>
<rect x="19.20" y="24.80" width="0.80" height="0.80"/>
<rect x="20.80" y="24.80" width="0.80" height="0.80"/>
<rect x="22.40" y="24.80" width="0.80" height="0.80"/>
<rect x="25.60" y="24.80" width="0.80" height="0.80"/>
<rect x="26.40" y="24.80" width="0.80" height="0.80"/>
<rect x="27.20" y="24.80" width="0.80" height="0.80"/>
<rect x="28.00" y="24.80" width="0.80" height="0.80"/>
<rect x="28.80" y="24.80" width="0.80" height="0.80"/>
<rect x="6.40" y="25.60" width="0.80" height="0.80"/>
<rect x="8.00" y="25.60" width="0.80" height="0.80"/>
<rect x="8.80" y="25.60" width="0.80" height="0.80"/>
<rect x="9.60" y="25.60" width="0.80" height="0.80"/>
<rect x="11.20" y="25.60" width="0.80" height="0.80"/>
<rect x="13.60" y="25.60" width="0.80" height="0.80"/>
<rect x="14.40" y="25.60" width="0.80" height="0.80"/>
<rect x="15.20" y="25.60" width="0.80" height="0.80"/>
<rect x="17.60" y="25.60" width="0.80" height="0.80"/>
<rect x="20.00" y="25.60" width="0.80" height="0.80"/>
<rect x="22.40" y="25.60" width="0.80" height="0.80"/>
<rect x="23.20" y="25.60" width="0.80" height="0.80"/>
<rect x="24.00" y="25.60" width="0.80" height="0.80"/>
<rect x="24.80" y="25.60" width="0.80" height="0.80"/>
<rect x="25.60" y="25.60" width="0.80" height="0.80"/>
<rect x="28.80" y="25.60" width="0.80" height="0.80"/>
<rect x="6.40" y="26.40" width="0.80" height="0.80"/>
<rect x="8.00" y="26.40" width="0.80" height="0.80"/>
<rect x="8.80" y="26.40" width="0.80" height="0.80"/>
<rect x="9.60" y="26.40" width="0.80" height="0.80"/>
<rect x="11.20" y="26.40" width="0.80" height="0.80"/>
<rect x="12.80" y="26.40" width="0.80" height="0.80"/>
<rect x="13.60" y="26.40" width="0.80" height="0.80"/>
<rect x="14.40" y="26.40" width="0.80" height="0.80"/>
<rect x="15.20" y="26.40" width="0.80" height="0.80"/>
<rect x="16.00" y="26.40" width="0.80" height="0.80"/>
<rect x="16.80" y="26.40" width="0.80" height="0.80"/>
<rect x="17.60" y="26.40" width="0.80" height="0.80"/>
<rect x="22.40" y="26.40" width="0.80" height="0.80"/>
<rect x="24.00" y="26.40" width="0.80" height="0.80"/>
<rect x="24.80" y="26.40" width="0.80" height="0.80"/>
<rect x="25.60" y="26.40" width="0.80" height="0.80"/>
<rect x="26.40" y="26.40" width="0.80" height="0.80"/>
<rect x="27.20" y="26.40" width="0.80" height="0.80"/>
<rect x="28.00" y="26.40" width="0.80" height="0.80"/>
<rect x="6.40" y="27.20" width="0.80" height="0.80"/>
<rect x="8.00" y="27.20" width="0.80" height="0.80"/>
<rect x="8.80" y="27.20" width="0.80" height="0.80"/>
<rect x="9.60" y="27.20" width="0.80" height="0.80"/>
<rect x="11.20" y="27.20" width="0.80" height="0.80"/>
<rect x="13.60" y="27.20" width="0.80" height="0.80"/>
<rect x="14.40" y="27.20" width="0.80" height="0.80"/>
<rect x="17.60" y="27.20" width="0.80" height="0.80"/>
<rect x="19.20" y="27.20" width="0.80" height="0.80"/>
<rect x="21.60" y="27.20" width="0.80" height="0.80"/>
<rect x="22.40" y="27.20" width="0.80" height="0.80"/>
<rect x="25.60" y="27.20" width="0.80" height="0.80"/>
<rect x="26.40" y="27.20" width="0.80" height="0.80"/>
<rect x="27.20" y="27.20" width="0.80" height="0.80"/>
<rect x="28.80" y="27.20" width="0.80" height="0.80"/>
<rect x="6.40" y="28.00" width="0.80" height="0.80"/>
<rect x="11.20" y="28.00" width="0.80" height="0.80"/>
<rect x="13.60" y="28.00" width="0.80" height="0.80"/>
<rect x="15.20" y="28.00" width="0.80" height="0.80"/>
<rect x="16.00" y="28.00" width="0.80" height="0.80"/>
<rect x="19.20" y="28.00" width="0.80" height="0.80"/>
<rect x="20.00" y="28.00" width="0.80" height="0.80"/>
<rect x="20.80" y="28.00" width="0.80" height="0.80"/>
<rect x="21.60" y="28.00" width="0.80" height="0.80"/>
<rect x="22.40" y="28.00" width="0.80" height="0.80"/>
<rect x="24.00" y="28.00" width="0.80" height="0.80"/>
<rect x="24.80" y="28.00" width="0.80" height="0.80"/>
<rect x="28.00" y="28.00" width="0.80" height="0.80"/>
<rect x="6.40" y="28.80" width="0.80" height="0.80"/>
<rect x="7.20" y="28.80" width="0.80" height="0.80"/>
<rect x="8.00" y="28.80" width="0.80" height="0.80"/>
<rect x="8.80" y="28.80" width="0.80" height="0.80"/>
<rect x="9.60" y="28.80" width="0.80" height="0.80"/>
<rect x="10.40" y="28.80" width="0.80" height="0.80"/>
<rect x="11.20" y="28.80" width="0.80" height="0.80"/>
<rect x="12.80" y="28.80" width="0.80" height="0.80"/>
<rect x="13.60" y="28.80" width="0.80" height="0.80"/>
<rect x="14.40" y="28.80" width="0.80" height="0.80"/>
<rect x="16.80" y="28.80" width="0.80" height="0.80"/>
<rect x="18.40" y="28.80" width="0.80" height="0.80"/>
<rect x="20.00" y="28.80" width="0.80" height="0.80"/>
<rect x="22.40" y="28.80" width="0.80" height="0.80"/>
<rect x="24.80" y="28.80" width="0.80" height="0.80"/>
<rect x="25.60" y="28.80" width="0.80" height="0.80"/>
<rect x="26.40" y="28.80" width="0.80" height="0.80"/>
<rect x="28.00" y="28.80" width="0.80" height="0.80"/>
</g>
</svg>